<svg xmlns="http://www.w3.org/2000/svg" width="991.997" height="730.8" viewBox="0 0 991.997 730.8"><defs><style>.a,.h{fill:#6c63ff;}.a,.b,.g{opacity:0.1;}.c{fill:#f5f5fb;}.d{fill:none;stroke:#565987;stroke-miterlimit:10;}.e{fill:#ffd037;}.f{opacity:0.2;}.i{fill:#3acc6c;opacity:0.7;}</style></defs><g transform="translate(36.397)"><path class="a" d="M405.13,554.07c33.657-13.73,86.491-16.53,134.581-15.43,151.058,3.43,287.413,36.8,405.353,74.55,42.7,13.67,84.736,28.4,112.454,47.22,56.42,38.31,39.683,91.38-38.767,122.94-26.7,10.74-59.052,19-92.276,26.26C867.395,822.59,803.686,833,736.641,836c-47.8,2.11-96.2.39-143.721-2.56C460.133,825.17,329.8,807,220.56,775.77c-47.917-13.67-93.076-30.67-112.8-52.8s-7.115-50.15,41.814-63.25c20.246-5.41,44.426-7.86,68.115-10.15,34.862-3.38,70.284-6.72,101.743-13.59,32.5-7.1,70.978-20.83,64.548-36.54C377.045,582.58,371.511,567.78,405.13,554.07Z" transform="translate(-135.24 -106.136)"/><path class="b" d="M575.62,93.22l-3.81,221s137.92,0,255.26,38.1L829.36,129S641.15,84.08,575.62,93.22Z" transform="translate(-97.894 -63.09)"/><path class="c" d="M573.62,90.22l-3.81,221s137.92,0,255.26,38.1L827.36,126S639.15,81.08,573.62,90.22Z" transform="translate(-97.799 -63.09)"/><path class="b" d="M516.88,93.05l3.81,221s-137.92,0-255.26,38.1l-2.29-223.26S451.35,83.91,516.88,93.05Z" transform="translate(-83.12 -63.09)"/><path class="c" d="M518.88,90.05l3.81,221s-137.92,0-255.26,38.1l-2.29-223.26S453.35,80.91,518.88,90.05Z" transform="translate(-83.215 -63.09)"/><path class="b" d="M862.65,160.51V379.2s45-5.33,139.44,111.25l8.39-218.69S912.18,165.85,862.65,160.51Z" transform="translate(-109.162 -63.09)"/><path class="c" d="M860.65,158.51V377.2s45-5.33,139.44,111.25l8.39-218.69S910.18,163.85,860.65,158.51Z" transform="translate(-109.162 -63.09)"/><path class="b" d="M232.3,167V385.7s-45-5.33-139.44,111.25L84.48,278.26S182.77,172.35,232.3,167Z" transform="translate(-72.24 -63.09)"/><path class="c" d="M234.3,164V382.7s-45-5.33-139.44,111.25L86.48,275.26S184.77,169.35,234.3,164Z" transform="translate(-72.24 -63.09)"/><ellipse class="a" cx="11.46" cy="1.57" rx="11.46" ry="1.57" transform="translate(249.854 350.993)"/><line class="d" x2="0.14" y2="3.42" transform="translate(268.77 340.963)"/><path class="b" d="M292,410.89a2.358,2.358,0,0,0-.31.63c-2.69,3.15-4.12,6.1-1.54,6.17,2.41.07,5.3,4.38,6,5.46a1.831,1.831,0,0,1-.08.25s-3.39-5.63-6.14-5.71S289,414.27,292,410.89Z" transform="translate(-81.376 -79.709)"/><path class="e" d="M289.18,413.44c0,.71.08,1.28.18,1.28s.17-.57.17-1.28-.09-.37-.19-.37S289.18,412.74,289.18,413.44Z" transform="translate(-81.334 -79.574)"/><path class="e" d="M288.2,414.29c.62.34,1.16.54,1.21.45s-.42-.43-1-.76-.38-.1-.42,0S287.58,414,288.2,414.29Z" transform="translate(-81.297 -79.596)"/><path class="b" d="M300.14,410.89a2.36,2.36,0,0,1,.31.63c2.69,3.15,4.12,6.1,1.54,6.17-2.41.07-5.29,4.38-6,5.46a1.831,1.831,0,0,0,.08.25s3.38-5.63,6.14-5.71S303.17,414.27,300.14,410.89Z" transform="translate(-81.645 -79.709)"/><path class="e" d="M303,413.44c0,.71-.07,1.28-.17,1.28s-.18-.57-.18-1.28.1-.37.2-.37S303,412.74,303,413.44Z" transform="translate(-81.817 -79.574)"/><path class="e" d="M304,414.29c-.62.34-1.16.54-1.2.45s.41-.43,1-.76.38-.1.43,0S304.59,414,304,414.29Z" transform="translate(-81.834 -79.596)"/><path class="f" d="M288.31,428.41c4.84,0,11.26-.75,12.55-1.54,1-.6,1.37-2.75,1.5-3.74h.15s-.28,3.46-1.57,4.25-7.7,1.58-12.55,1.54c-1.39,0-1.88-.51-1.85-1.25C286.73,428.13,287.27,428.4,288.31,428.41Z" transform="translate(-81.378 -80.142)"/><ellipse class="a" cx="34.72" cy="5.13" rx="34.72" ry="5.13" transform="translate(152.875 467.855)"/><ellipse class="a" cx="34.72" cy="5.13" rx="34.72" ry="5.13" transform="translate(246.123 508.311)"/><ellipse class="a" cx="34.72" cy="5.13" rx="34.72" ry="5.13" transform="translate(813.498 652.184)"/><ellipse class="a" cx="22.99" cy="2.57" rx="22.99" ry="2.57" transform="translate(449.15 545.646)"/><ellipse class="a" cx="22.99" cy="2.57" rx="22.99" ry="2.57" transform="translate(593.506 599.704)"/><ellipse class="a" cx="22.99" cy="2.57" rx="22.99" ry="2.57" transform="translate(402.52 582.744)"/><ellipse class="a" cx="22.99" cy="2.57" rx="22.99" ry="2.57" transform="translate(223.535 583.153)"/><ellipse class="a" cx="22.99" cy="2.57" rx="22.99" ry="2.57" transform="translate(176.895 622.114)"/><g class="g" transform="translate(342.575 217.615)"><path d="M0,67.89Z" transform="translate(0 -57.066)"/></g><path class="h" d="M735.8,379.63Z" transform="translate(-97.219 -78.214)"/><path class="b" d="M784,634.24l12.07,1.17,16.74-3.9,5.06-5.06-.41-1.23-4.65,3.57s-8.57,4.67-12.85,3.89H787.88l2.34-3.11-2.1-3.24a5,5,0,0,0-2,1.21,5.1,5.1,0,0,0-1.38,2.42Z" transform="translate(-100.001 -89.869)"/><path class="b" d="M793.14,412.91s3.11-3.11,12.07-3.5,12.84-3.11,12.84-3.11" transform="translate(-100.089 -79.363)"/><circle class="a" cx="21.63" cy="21.63" r="21.63" transform="translate(9.66 0)"/><circle class="a" cx="21.63" cy="21.63" r="21.63" transform="translate(902.738 62)"/><circle class="a" cx="16" cy="16" r="16" transform="translate(0 90.18)"/><circle class="a" cx="16" cy="16" r="16" transform="translate(154.652 0.18)"/><circle class="a" cx="16" cy="16" r="16" transform="translate(781.078 2.18)"/><path class="b" d="M961.86,709.49a6.418,6.418,0,0,1,.81,1.65c7,8.24,10.76,15.93,4,16.12-6.28.18-13.81,11.41-15.62,14.25a5.386,5.386,0,0,0,.22.64s8.83-14.68,16-14.89S969.76,718.33,961.86,709.49Z" transform="translate(-109.162 -99.136)"/><path class="e" d="M969.3,716.17c0,1.84-.21,3.34-.46,3.34s-.46-1.5-.46-3.34.26-1,.51-1S969.3,714.32,969.3,716.17Z" transform="translate(-109.162 -99.136)"/><path class="e" d="M971.86,718.37c-1.62.88-3,1.41-3.16,1.19s1.1-1.12,2.71-2,1-.24,1.11,0S973.48,717.49,971.86,718.37Z" transform="translate(-109.162 -99.136)"/><path class="b" d="M940.7,709.49a6.615,6.615,0,0,0-.82,1.65c-7,8.24-10.75,15.93-4,16.12,6.28.18,13.82,11.41,15.62,14.25-.06.21-.13.43-.21.64,0,0-8.84-14.68-16-14.89S932.79,718.33,940.7,709.49Z" transform="translate(-109.162 -99.136)"/><path class="e" d="M933.25,716.17c0,1.84.21,3.34.47,3.34s.46-1.5.46-3.34-.26-1-.52-1S933.25,714.32,933.25,716.17Z" transform="translate(-109.162 -99.136)"/><path class="e" d="M930.7,718.37c1.62.88,3,1.41,3.15,1.19s-1.09-1.12-2.71-2-1-.24-1.1,0S929.08,717.49,930.7,718.37Z" transform="translate(-109.162 -99.136)"/><path class="i" d="M388.69,189.06a21,21,0,1,0,21,21A21,21,0,0,0,388.69,189.06Zm0,4.07a17,17,0,1,1-17,17,17,17,0,0,1,17-17m11.89,11.05-1.91-1.93a1,1,0,0,0-1.44,0l-12,11.89L380.17,209a1,1,0,0,0-1.44,0l-1.92,1.91a1,1,0,0,0,0,1.44l7.7,7.76a1,1,0,0,0,1.44,0l14.63-14.52a1,1,0,0,0,0-1.44Z" transform="translate(-84.655 -69.354)"/><path class="i" d="M156.21,295.38a21,21,0,1,0,15.88,2.647,21,21,0,0,0-15.88-2.647Zm.92,4a17,17,0,1,1-12.71,20.34,17,17,0,0,1,12.71-20.34m14.07,8.1L168.9,306a1,1,0,0,0-1.4.32l-9,14.28-6.09-3.85a1,1,0,0,0-1.4.32l-1.45,2.3a1,1,0,0,0,.32,1.4l9.24,5.83a1,1,0,0,0,1.41-.32l11-17.43a1,1,0,0,0-.31-1.4Z" transform="translate(-72.24 -74.614)"/><path class="i" d="M694.76,192.1a21,21,0,1,0,21,21A21,21,0,0,0,694.76,192.1Zm0,4.07a17,17,0,1,1-17,17,17,17,0,0,1,17-17m11.89,11.05-1.91-1.93a1,1,0,0,0-1.44,0l-12,11.89-5.07-5.11a1,1,0,0,0-1.44,0L682.88,214a1,1,0,0,0,0,1.44l7.7,7.76a1,1,0,0,0,1.44,0l14.63-14.52a1,1,0,0,0,0-1.44Z" transform="translate(-96.105 -69.505)"/><path class="i" d="M935.69,295.81a21,21,0,1,0,14.338,7.292A21,21,0,0,0,935.69,295.81Zm-.32,4.05a16.95,16.95,0,1,1-12.344,4.023,17,17,0,0,1,12.344-4.023m11,11.94-1.76-2.07a1,1,0,0,0-1.43-.12l-12.87,10.93-4.66-5.49a1,1,0,0,0-1.44-.12l-2.07,1.76a1,1,0,0,0-.11,1.43l7.07,8.33a1,1,0,0,0,1.43.12l15.72-13.34a1,1,0,0,0,.12-1.43Z" transform="translate(-109.162 -74.66)"/></g></svg>