<svg xmlns="http://www.w3.org/2000/svg" width="224.575" height="267.984" viewBox="0 0 224.575 267.984"><g transform="translate(-11.084)"><path d="M128.182,233.369a4.771,4.771,0,0,1,4.625-4.921h15.907a56.826,56.826,0,0,0,22.268,9.617,4.107,4.107,0,0,1-.99.21H132.806A4.76,4.76,0,0,1,128.182,233.369Zm-11.306-39.333h8.242a64.5,64.5,0,0,1-1.879-9.835h-6.363a4.926,4.926,0,0,0,0,9.835ZM82.817,69.853c-5.678-4.053-9.589-12.083-9.589-19.3C73.228,40.367,81,32.1,90.592,32.1s17.364,8.267,17.364,18.455c0,7.217-3.918,15.245-9.605,19.3,13.611,3.664,23.689,16.228,23.689,25.521,0,10.991-62.892,10.991-62.892,0C59.143,86.079,69.23,73.525,82.817,69.853ZM81.768,94.267l8.817,9.35,8.824-9.35L91.987,75.215h.069l2.884-3.5a12.36,12.36,0,0,1-4.355.844,12.127,12.127,0,0,1-4.355-.86l2.876,3.516h.076ZM198,257.258l.016-.016-.221-.413c-.115,0-.214.031-.32.031H36.278c-8.333,0-15.112-7.2-15.112-16.05V26.746c0-8.846,6.779-16.046,15.112-16.046H197.472c8.331,0,15.109,7.2,15.109,16.046v97.976a58.993,58.993,0,0,1,10.08,8.405V26.746C222.661,11.993,211.364,0,197.472,0H36.278c-13.9,0-25.194,11.993-25.194,26.746V240.812c0,14.748,11.3,26.742,25.192,26.742H197.471a23.63,23.63,0,0,0,5.713-.759ZM63.764,171.626h59.359a66.77,66.77,0,0,1,1.574-9.836H63.771a4.928,4.928,0,0,0-.007,9.836Zm0-44.811h83.179a59,59,0,0,1,5.142-3.568,56.749,56.749,0,0,1,14.433-6.275H63.764a4.931,4.931,0,0,0,0,9.842Zm0,22.4h65.3a62.848,62.848,0,0,1,5.737-9.835H63.764a4.927,4.927,0,0,0,0,9.835Zm158.114,2.991c12.9,23.744,5.219,54.225-17.148,67.917-22.344,13.7-51.033,5.576-63.936-18.2-12.91-23.736-5.219-54.212,17.118-67.921C180.278,120.293,208.975,128.451,221.878,152.208Zm-6.7,4.121c-10.781-19.816-34.721-26.629-53.368-15.211-18.662,11.46-25.09,36.86-14.288,56.7,10.757,19.815,34.691,26.643,53.352,15.2C219.526,201.552,225.932,176.144,215.175,156.329Zm1.332,60.74-20.122,12.35,15.5,28.495L232,245.581ZM234.1,249.46,213.958,261.8a11.273,11.273,0,0,0,15.885,4.534A12.777,12.777,0,0,0,234.1,249.46Z"/></g></svg>