<svg width="605" height="421" viewBox="0 0 605 421" fill="none" xmlns="http://www.w3.org/2000/svg">
<path d="M260.046 59.2153C291.71 61.181 313.049 66.1499 340.867 74.6243C348.18 76.8522 356.087 78.6107 360.811 84.6214C368.431 92.8032 375.871 100.99 384.809 106.964C421.099 131.217 465.33 136.251 504.204 153.989C535.016 168.048 579.291 191.283 575.295 244.957C573.737 265.881 562.397 279.469 546.602 281.334C531.038 283.171 517.967 291.625 504.203 295.51C470.925 304.903 455 273.145 424 281.334C401.011 287.406 377.225 293.915 354.236 298.394C304.062 308.17 254.244 312.06 205.439 308.719C178.99 306.909 153.513 302.056 128.196 295.513C108.257 290.36 87.0604 286.081 69.1452 275.081C48.3277 262.299 36.1043 239.161 43.661 205.031C50.3244 174.936 68.0206 148.942 87.1461 128.803C136.985 76.3254 203.964 55.7337 260.046 59.2153Z" fill="#E5F4F9"/>
<g clip-path="url(#clip0)">
<path d="M306.776 288.341C417.409 288.341 507.094 282.4 507.094 275.071C507.094 267.743 417.409 261.801 306.776 261.801C196.144 261.801 106.458 267.743 106.458 275.071C106.458 282.4 196.144 288.341 306.776 288.341Z" fill="#F2F2F2"/>
<path d="M299.099 129.797C266.461 129.797 243.028 150.75 243.028 199.64C243.028 255.049 266.461 269.716 299.099 269.716C331.736 269.716 356.565 253.652 356.565 199.64C356.565 141.903 331.736 129.797 299.099 129.797ZM299.313 251.324C276.708 251.324 264.898 238.054 264.898 199.676C264.898 165.814 277.191 147.956 299.797 147.956C322.402 147.956 334.695 159.686 334.695 199.676C334.695 237.086 321.919 251.324 299.313 251.324Z" fill="#2F2E41"/>
<path d="M223.485 231.07H209.991V191.307C209.991 189.195 209.153 187.169 207.66 185.676C206.168 184.183 204.144 183.344 202.033 183.344H198.871C197.826 183.344 196.791 183.55 195.826 183.95C194.86 184.35 193.983 184.937 193.244 185.676C192.505 186.415 191.919 187.293 191.519 188.259C191.119 189.226 190.913 190.261 190.913 191.307V231.07H152.851C152.068 231.07 151.298 230.867 150.616 230.482C149.935 230.097 149.364 229.541 148.96 228.87C148.556 228.199 148.332 227.435 148.31 226.652C148.288 225.868 148.468 225.093 148.834 224.4L189.119 148.104C189.621 147.152 189.925 146.109 190.014 145.037C190.102 143.965 189.972 142.886 189.632 141.865C189.292 140.845 188.749 139.903 188.035 139.099C187.322 138.294 186.453 137.642 185.481 137.183L183.103 136.059C181.256 135.186 179.145 135.058 177.206 135.699C175.267 136.341 173.649 137.704 172.686 139.506L123.554 231.478C122.717 233.044 122.279 234.793 122.279 236.568C122.279 237.987 122.558 239.391 123.101 240.701C123.643 242.011 124.438 243.201 125.44 244.204C126.442 245.207 127.631 246.002 128.941 246.545C130.25 247.087 131.653 247.367 133.07 247.367H190.913V272.51C190.913 273.764 191.16 275.005 191.639 276.163C192.119 277.321 192.821 278.373 193.707 279.26C194.593 280.146 195.644 280.849 196.802 281.329C197.959 281.808 199.199 282.055 200.452 282.055H200.452C201.705 282.055 202.945 281.808 204.103 281.329C205.26 280.849 206.311 280.146 207.197 279.26C208.083 278.373 208.786 277.321 209.265 276.163C209.744 275.005 209.991 273.764 209.991 272.51V247.367H223.485C225.645 247.367 227.716 246.508 229.243 244.98C230.77 243.452 231.628 241.379 231.628 239.218C231.628 237.057 230.77 234.985 229.243 233.456C227.716 231.928 225.645 231.07 223.485 231.07Z" fill="#008DC8"/>
<path d="M473.359 231.07H459.865V191.307C459.865 189.195 459.027 187.169 457.534 185.676C456.042 184.183 454.018 183.344 451.907 183.344H448.745C447.7 183.344 446.665 183.55 445.7 183.95C444.734 184.35 443.857 184.937 443.118 185.676C442.379 186.415 441.793 187.293 441.393 188.259C440.993 189.226 440.787 190.261 440.787 191.307V231.07H402.725C401.942 231.07 401.172 230.867 400.49 230.482C399.809 230.097 399.238 229.541 398.834 228.87C398.43 228.199 398.206 227.435 398.184 226.652C398.162 225.868 398.342 225.093 398.708 224.4L438.993 148.104C439.495 147.152 439.799 146.109 439.888 145.037C439.976 143.965 439.846 142.886 439.506 141.865C439.166 140.845 438.623 139.903 437.909 139.099C437.196 138.294 436.327 137.642 435.355 137.183L432.977 136.059C431.13 135.186 429.019 135.058 427.08 135.699C425.141 136.341 423.523 137.704 422.56 139.506L373.428 231.478C372.591 233.044 372.153 234.793 372.153 236.568C372.153 239.432 373.29 242.179 375.314 244.204C377.338 246.229 380.082 247.367 382.944 247.367H440.787V272.51C440.787 275.042 441.792 277.469 443.581 279.26C445.37 281.05 447.796 282.055 450.326 282.055C452.856 282.055 455.282 281.05 457.071 279.26C458.86 277.469 459.865 275.042 459.865 272.51V247.367H473.359C475.519 247.367 477.59 246.508 479.117 244.98C480.644 243.452 481.502 241.379 481.502 239.218C481.502 237.057 480.644 234.985 479.117 233.456C477.59 231.928 475.519 231.07 473.359 231.07Z" fill="#008DC8"/>
<path d="M227.207 226.414H213.713V186.651C213.713 185.605 213.507 184.569 213.108 183.603C212.708 182.637 212.121 181.759 211.382 181.02C210.643 180.28 209.766 179.694 208.801 179.294C207.835 178.893 206.8 178.687 205.755 178.687H202.593C200.483 178.687 198.459 179.526 196.966 181.02C195.474 182.513 194.635 184.539 194.635 186.651V226.414H156.573C155.79 226.414 155.02 226.211 154.339 225.826C153.657 225.44 153.086 224.885 152.682 224.214C152.278 223.543 152.054 222.779 152.032 221.996C152.01 221.212 152.19 220.437 152.556 219.744L192.841 143.447C193.343 142.496 193.648 141.453 193.736 140.381C193.824 139.309 193.694 138.23 193.354 137.209C193.014 136.188 192.471 135.247 191.758 134.443C191.044 133.638 190.175 132.986 189.203 132.527L186.825 131.403C184.978 130.53 182.867 130.401 180.928 131.043C178.989 131.685 177.371 133.047 176.408 134.849L127.276 226.822C126.439 228.388 126.001 230.136 126.001 231.912V231.912C126.001 234.776 127.138 237.523 129.162 239.548C131.186 241.573 133.93 242.71 136.792 242.71H194.635V267.854C194.635 269.107 194.882 270.349 195.361 271.507C195.841 272.665 196.543 273.717 197.429 274.603C198.315 275.49 199.367 276.193 200.524 276.673C201.681 277.152 202.922 277.399 204.174 277.399H204.174C206.704 277.399 209.13 276.393 210.919 274.603C212.708 272.813 213.713 270.385 213.713 267.854V242.71H227.207C228.277 242.71 229.336 242.5 230.324 242.09C231.312 241.681 232.209 241.08 232.965 240.324C233.722 239.567 234.321 238.669 234.731 237.68C235.14 236.692 235.35 235.632 235.35 234.562V234.562C235.35 233.492 235.14 232.432 234.731 231.444C234.321 230.455 233.722 229.557 232.965 228.8C232.209 228.044 231.312 227.443 230.324 227.034C229.336 226.624 228.277 226.414 227.207 226.414V226.414Z" stroke="#3F3D56" stroke-miterlimit="10"/>
<path d="M480.339 226.414H466.845V186.651C466.845 184.539 466.006 182.513 464.514 181.02C463.021 179.526 460.997 178.687 458.887 178.687H455.725C454.68 178.687 453.645 178.893 452.679 179.294C451.714 179.694 450.836 180.28 450.098 181.02C449.359 181.759 448.772 182.637 448.372 183.603C447.973 184.569 447.767 185.605 447.767 186.651V226.414H409.704C408.921 226.414 408.152 226.211 407.47 225.826C406.788 225.44 406.217 224.885 405.813 224.214C405.409 223.543 405.185 222.779 405.163 221.996C405.141 221.212 405.322 220.437 405.688 219.744L445.972 143.447C446.474 142.496 446.779 141.453 446.867 140.381C446.955 139.309 446.826 138.23 446.486 137.209C446.146 136.188 445.602 135.247 444.889 134.443C444.175 133.638 443.306 132.986 442.334 132.527L439.956 131.403C438.109 130.53 435.998 130.401 434.059 131.043C432.121 131.685 430.502 133.047 429.54 134.849L380.407 226.822C379.571 228.388 379.133 230.136 379.133 231.912C379.133 234.776 380.27 237.523 382.293 239.548C384.317 241.573 387.062 242.71 389.924 242.71H447.767V267.854C447.767 270.385 448.772 272.813 450.561 274.603C452.349 276.393 454.776 277.399 457.306 277.399V277.399C459.836 277.399 462.262 276.393 464.051 274.603C465.84 272.813 466.845 270.385 466.845 267.854V242.71H480.339C481.408 242.71 482.467 242.5 483.455 242.09C484.443 241.681 485.34 241.08 486.097 240.324C486.853 239.567 487.453 238.669 487.862 237.68C488.271 236.692 488.482 235.632 488.482 234.562V234.562C488.482 232.401 487.624 230.328 486.097 228.8C484.57 227.272 482.498 226.414 480.339 226.414V226.414Z" stroke="#3F3D56" stroke-miterlimit="10"/>
<path d="M306.544 125.607C273.906 125.607 250.473 146.56 250.473 195.45C250.473 250.859 273.906 265.526 306.544 265.526C339.181 265.526 364.01 249.462 364.01 195.45C364.01 137.713 339.181 125.607 306.544 125.607ZM306.758 247.134C284.153 247.134 272.343 233.863 272.343 195.486C272.343 161.623 284.636 143.766 307.242 143.766C329.847 143.766 342.14 155.496 342.14 195.486C342.14 232.896 329.363 247.134 306.758 247.134V247.134Z" stroke="#3F3D56" stroke-miterlimit="10"/>
<path d="M280.383 78.1714C283.089 78.1714 285.282 75.9766 285.282 73.2692C285.282 70.5617 283.089 68.3669 280.383 68.3669C277.677 68.3669 275.484 70.5617 275.484 73.2692C275.484 75.9766 277.677 78.1714 280.383 78.1714Z" fill="#2F2E41"/>
<path d="M292.332 101.965C299.922 101.965 306.074 93.9891 306.074 84.1498C306.074 74.3105 299.922 66.3342 292.332 66.3342C284.743 66.3342 278.591 74.3105 278.591 84.1498C278.591 93.9891 284.743 101.965 292.332 101.965Z" fill="#2F2E41"/>
<path opacity="0.1" d="M292.332 96.5848C285.448 96.5848 279.747 90.0223 278.746 81.4595C278.642 82.3525 278.59 83.2508 278.59 84.1498C278.59 93.9891 284.743 101.965 292.332 101.965C299.921 101.965 306.074 93.9891 306.074 84.1498C306.074 83.2508 306.022 82.3525 305.918 81.4595C304.917 90.0223 299.216 96.5848 292.332 96.5848Z" fill="black"/>
<path d="M320.295 136.325C320 137.539 318.728 138.51 317.318 139.189C314.356 140.617 310.701 141.043 307.156 141.186C306.252 141.241 305.345 141.224 304.443 141.136C302.696 140.967 301.057 140.213 299.791 138.996C299.701 138.937 299.627 138.856 299.576 138.761C299.526 138.666 299.5 138.559 299.502 138.451C299.503 138.343 299.532 138.237 299.586 138.144C299.639 138.05 299.716 137.971 299.808 137.915C301.695 135.841 304.844 134.569 308.017 133.653C310.422 132.959 314.617 131.16 317.241 131.403C319.782 131.638 320.668 134.793 320.295 136.325Z" fill="#3F3D56"/>
<path opacity="0.1" d="M320.295 136.325C320 137.539 318.728 138.51 317.318 139.189C314.356 140.617 310.701 141.043 307.156 141.186C306.252 141.241 305.345 141.224 304.443 141.136C302.696 140.967 301.057 140.213 299.791 138.996C299.701 138.937 299.627 138.856 299.576 138.761C299.526 138.666 299.5 138.559 299.502 138.451C299.503 138.343 299.532 138.237 299.586 138.144C299.639 138.05 299.716 137.971 299.808 137.915C301.695 135.841 304.844 134.569 308.017 133.653C310.422 132.959 314.617 131.16 317.241 131.403C319.782 131.638 320.668 134.793 320.295 136.325Z" fill="black"/>
<path d="M282.624 127.255C281.72 129.029 281.556 131.089 282.169 132.983C282.793 134.863 283.96 136.516 285.522 137.732C289.356 140.807 294.631 141.23 299.544 141.187C303.85 141.15 308.149 140.855 312.42 140.304C313.851 140.177 315.257 139.851 316.598 139.334C318.201 138.639 319.61 137.366 320.181 135.714C320.752 134.062 320.347 132.038 318.991 130.936C317.8 129.967 316.157 129.834 314.625 129.742L305.857 129.214C306.723 128.337 307.877 127.841 308.931 127.203C310.331 126.357 311.261 124.937 312.278 123.656C313.846 121.781 315.552 120.026 317.382 118.406C317.667 120.044 318.702 121.389 319.921 122.519C321.14 123.649 322.545 124.559 323.811 125.635C326.879 128.241 329.088 131.778 332.315 134.185C334.534 133.601 336.609 132.565 338.409 131.14L337.155 128.867C337.051 128.634 336.888 128.43 336.682 128.277C336.328 128.059 335.87 128.171 335.458 128.11C334.356 127.944 333.875 126.672 333.443 125.645C332.256 122.824 329.984 120.636 328.044 118.271C326.611 116.526 325.341 114.653 324.248 112.677C323.596 111.498 322.999 110.271 322.114 109.256C321.23 108.24 319.99 107.442 318.644 107.439C317.455 107.437 316.358 108.041 315.335 108.649C312.22 110.5 309.223 112.543 306.361 114.766C304.864 115.93 303.375 117.159 301.619 117.872C300.879 118.172 300.099 118.378 299.39 118.743C298.147 119.383 297.203 120.466 296.188 121.427C292.566 124.856 287.607 127.078 282.624 127.255Z" fill="#3F3D56"/>
<path d="M300.957 102.85C300.917 103.898 300.694 104.931 300.299 105.903C300.099 106.387 299.801 106.825 299.424 107.19C299.047 107.554 298.599 107.837 298.109 108.02C297.412 108.207 296.681 108.231 295.973 108.09C295.356 108.025 294.762 107.822 294.233 107.497C293.411 106.931 293.001 105.922 292.852 104.934C292.703 103.948 292.77 102.94 292.674 101.946C292.581 101.144 292.428 100.349 292.218 99.5693C292.153 99.3098 292.087 99.0515 292.023 98.7933C291.959 98.535 291.897 98.2767 291.84 98.0185C291.787 97.7757 291.738 97.5318 291.697 97.2867C291.662 97.0799 291.631 96.8718 291.608 96.6626C291.587 96.0422 291.484 95.4275 291.301 94.8344C291.129 94.4497 290.915 94.0859 290.661 93.7499C290.552 93.5945 290.447 93.439 290.35 93.2776C290.07 92.8581 289.94 92.3563 289.981 91.8536C289.992 91.7758 290.011 91.6994 290.037 91.6252C290.046 91.5965 290.057 91.5678 290.069 91.5403C290.177 91.5111 290.275 91.4561 290.357 91.38C290.438 91.3039 290.5 91.2092 290.536 91.1039C290.577 90.8776 290.558 90.6446 290.48 90.4283C290.391 90.1261 290.269 89.8346 290.116 89.559C290.015 89.3773 289.675 89.0497 289.672 88.8416C289.668 88.4231 290.485 88.086 290.816 87.9209C291.826 87.4147 292.953 87.1861 294.08 87.2585C294.803 87.3076 295.587 87.53 295.986 88.1362C296.345 88.6826 296.297 89.3904 296.45 90.0253C296.466 90.1176 296.505 90.2044 296.564 90.2776C296.642 90.3487 296.74 90.3938 296.844 90.4068C297.021 90.442 297.203 90.4493 297.382 90.4283H297.383C297.431 90.4245 297.478 90.4177 297.524 90.408C297.803 90.3564 298.067 90.2424 298.296 90.0744C298.444 90.0349 298.594 90.0026 298.744 89.9775C298.75 89.9769 298.756 89.9757 298.762 89.9739C299.361 91.8643 299.439 93.891 299.928 95.816C300.171 96.7737 300.519 97.7195 300.568 98.7048C300.571 98.7478 300.573 98.792 300.574 98.8363C300.581 99.1531 300.556 99.4724 300.569 99.788C300.574 99.9302 300.59 100.072 300.617 100.211C300.67 100.436 300.737 100.657 300.816 100.874L300.82 100.884C300.843 100.954 300.864 101.024 300.882 101.095C300.895 101.146 300.907 101.197 300.917 101.248L300.918 101.252C301.006 101.78 301.02 102.318 300.957 102.85Z" fill="#FBBEBE"/>
<path d="M292.572 90.4869C296.465 90.4869 299.622 87.3285 299.622 83.4324C299.622 79.5363 296.465 76.3779 292.572 76.3779C288.678 76.3779 285.521 79.5363 285.521 83.4324C285.521 87.3285 288.678 90.4869 292.572 90.4869Z" fill="#FBBEBE"/>
<path d="M337.331 121.869C337.127 119.944 336.443 118.101 335.343 116.51C335.526 117.598 335.709 118.685 335.892 119.773C335.664 119.839 335.422 119.837 335.194 119.767C334.967 119.697 334.766 119.562 334.614 119.379C334.317 119.008 334.09 118.587 333.943 118.135C333.142 116.145 332.095 114.264 330.826 112.535C326.338 112.161 321.901 110.299 317.954 108.129C314.006 105.96 310.311 103.36 306.416 101.099C305.74 100.69 305.037 100.33 304.31 100.022C303.091 99.5334 301.723 99.2799 300.568 98.7048C300.49 98.6665 300.412 98.6259 300.336 98.584C300.075 98.442 299.828 98.2758 299.597 98.0878C299.473 97.9867 299.355 97.8781 299.244 97.7626C298.667 97.0914 298.21 96.3263 297.892 95.5004C297.272 94.1277 297.051 92.4717 296.432 91.0991C296.717 90.833 297.036 90.6073 297.382 90.4283H297.383C297.433 90.402 297.484 90.3769 297.535 90.353C297.78 90.2376 298.035 90.1443 298.296 90.0744C298.444 90.0349 298.594 90.0026 298.744 89.9775C298.75 89.9769 298.756 89.9757 298.762 89.9739C299.46 89.8601 300.176 89.9167 300.847 90.1389C301.83 90.4713 302.658 91.1349 303.483 91.7627C304.825 92.7083 306.111 93.7295 307.337 94.8212C308.018 95.474 308.64 96.1914 309.372 96.7845C309.981 97.2546 310.622 97.6802 311.292 98.0579C315.256 100.421 319.22 102.783 323.184 105.145C324.526 105.945 325.869 106.745 327.181 107.591C329.174 108.878 331.096 110.272 333.016 111.665C334.148 112.485 335.279 113.306 336.41 114.127C336.781 114.363 337.107 114.665 337.372 115.016C337.606 115.415 337.751 115.86 337.798 116.321C338.082 118.181 337.922 120.082 337.331 121.869Z" fill="#FBBEBE"/>
<path d="M302.705 108.155C302.23 110.29 300.074 111.58 298.947 113.455C297.547 115.781 298.118 118.486 298.644 121.151C297.683 121.98 296.722 122.808 295.761 123.637C295.23 124.093 294.699 124.551 294.128 124.953C293.295 125.512 292.425 126.012 291.523 126.45C290.673 126.888 289.822 127.326 288.971 127.765C288.18 128.209 287.342 128.565 286.472 128.824C284.796 129.254 283.015 128.953 281.357 128.454C281.161 128.403 280.973 128.326 280.798 128.226C280.694 128.164 280.604 128.083 280.532 127.986C280.369 127.692 280.309 127.352 280.364 127.021C280.532 124.228 281.215 121.493 281.895 118.779C282.258 117.151 282.747 115.553 283.356 114C283.954 112.669 284.641 111.38 285.412 110.143C286.264 108.585 287.273 107.119 288.424 105.768C288.984 105.247 289.455 104.639 289.819 103.967C290.244 102.998 290.08 101.888 290.166 100.833C290.232 100.041 290.442 99.2672 290.786 98.5505V98.5493C290.97 98.1633 291.192 97.7965 291.448 97.4541C291.564 97.7243 291.68 97.9941 291.796 98.2636C291.872 98.4405 291.948 98.6171 292.023 98.7933C292.121 99.0205 292.218 99.2468 292.314 99.4724C292.593 100.12 292.871 100.768 293.148 101.415C293.448 102.231 293.876 102.993 294.415 103.674C294.661 104.023 294.994 104.302 295.38 104.483C295.767 104.665 296.193 104.743 296.619 104.711C297.045 104.678 297.454 104.535 297.808 104.297C298.163 104.059 298.449 103.732 298.639 103.35C299.041 102.637 299.332 101.866 299.502 101.065C299.738 100.09 299.77 99.0763 299.597 98.0878C299.31 96.1843 298.501 94.2401 297.913 92.4717C297.673 91.8821 297.535 91.2564 297.503 90.6208C297.504 90.5494 297.511 90.4782 297.524 90.408C297.528 90.3901 297.531 90.3709 297.535 90.353C297.78 90.2376 298.035 90.1443 298.296 90.0744C298.444 90.0349 298.594 90.0027 298.744 89.9775C299.262 92.7802 299.78 95.5829 300.299 98.3855C300.311 98.4513 300.324 98.5171 300.336 98.584C300.41 98.9858 300.485 99.3875 300.569 99.7881C300.644 100.152 300.726 100.514 300.816 100.874L300.82 100.885C300.851 101.006 300.883 101.127 300.917 101.248L300.918 101.252C301.01 101.582 301.113 101.909 301.229 102.232C301.931 104.177 303.156 106.136 302.705 108.155Z" fill="#008DC8"/>
<path d="M331.318 138.15C331.295 138.562 331.375 138.972 331.549 139.345C331.991 140.152 333.049 140.335 333.965 140.411C339.317 140.851 344.701 140.687 350.016 139.921C350.304 139.902 350.584 139.815 350.833 139.668C351.588 139.138 351.123 137.846 350.297 137.432C349.472 137.018 348.493 137.118 347.588 136.939C346.688 136.712 345.832 136.341 345.052 135.838C343.216 134.783 341.407 133.682 339.624 132.537C338.563 131.855 337.31 131.127 336.115 131.532C332.878 132.628 331.296 134.656 331.318 138.15Z" fill="#3F3D56"/>
<path d="M291.868 97.8692V97.8704C291.859 97.9206 291.851 97.9696 291.84 98.0186C291.827 98.0999 291.812 98.1824 291.796 98.2637C291.648 99.023 291.466 99.7787 291.257 100.53C290.684 102.604 289.915 104.645 289.153 106.656C287.107 112.049 285.061 117.442 283.014 122.835C282.498 124.194 281.983 125.553 281.396 126.884C281.201 127.328 280.999 127.775 280.798 128.227C280.078 129.845 279.388 131.515 279.158 133.237C278.944 134.37 278.92 135.531 279.086 136.672C279.315 137.801 280 138.903 281.071 139.321C281.595 139.525 282.344 139.799 282.201 140.343C282.123 140.642 281.784 140.788 281.479 140.838C281.077 140.902 280.665 140.877 280.273 140.764C279.882 140.651 279.52 140.454 279.213 140.185C278.641 139.677 278.201 138.887 277.44 138.802C276.913 138.744 276.428 139.06 275.945 139.281C273.976 140.182 271.682 139.551 269.613 138.912C269.776 138.074 270.617 137.521 271.452 137.354C272.288 137.185 273.151 137.305 274.003 137.282C274.276 137.297 274.547 137.227 274.779 137.082C274.987 136.891 275.133 136.642 275.197 136.367C275.746 134.74 276.154 133.069 276.417 131.372C276.692 129.598 276.807 127.798 277.199 126.046C277.503 124.679 277.974 123.356 278.378 122.014C279.159 119.252 279.8 116.452 280.3 113.625C280.552 112.451 280.733 111.262 280.841 110.065C280.909 109.073 280.877 108.076 280.972 107.087C281.133 105.8 281.401 104.53 281.774 103.288C282.14 101.933 282.505 100.579 282.87 99.2263C283.411 97.2235 283.992 95.1429 285.364 93.5861C285.84 93.0381 286.424 92.5937 287.079 92.2807C287.734 91.9677 288.446 91.7926 289.172 91.7663C289.444 91.7659 289.715 91.7952 289.981 91.8536C290.025 91.8643 290.069 91.8751 290.114 91.887C290.403 91.9628 290.681 92.0778 290.939 92.229C291.362 91.96 291.577 92.0544 291.858 92.4693C292.104 92.9084 292.22 93.4086 292.193 93.9114C292.216 95.2382 292.107 96.564 291.868 97.8692Z" fill="#FBBEBE"/>
<path d="M292.332 99.4545L292.315 99.4724L292.218 99.5693L291.257 100.529L290.786 98.5505L289.172 91.7663C289.444 91.7659 289.715 91.7952 289.981 91.8535C289.992 91.7758 290.011 91.6994 290.037 91.6252L290.113 91.887L290.661 93.7499L291.697 97.2867L291.868 97.869V97.8702L292.332 99.4545Z" fill="#008DC8"/>
<path d="M298.429 77.8109C298.428 78.4391 298.303 79.061 298.062 79.641C297.821 80.221 297.468 80.7478 297.023 81.1912C296.862 81.3526 296.69 81.502 296.507 81.6382C295.682 82.2602 294.678 82.5969 293.645 82.5973H287.912C286.646 82.5954 285.431 82.0905 284.536 81.1935C283.641 80.2965 283.139 79.0808 283.139 77.8132C283.139 76.5457 283.641 75.3299 284.536 74.433C285.431 73.536 286.646 73.0311 287.912 73.0291H293.645C294.912 73.0324 296.126 73.5371 297.022 74.433C297.918 75.329 298.424 76.5433 298.429 77.8109Z" fill="#2F2E41"/>
<path d="M303.804 78.1714C306.509 78.1714 308.703 75.9766 308.703 73.2692C308.703 70.5617 306.509 68.3669 303.804 68.3669C301.098 68.3669 298.904 70.5617 298.904 73.2692C298.904 75.9766 301.098 78.1714 303.804 78.1714Z" fill="#2F2E41"/>
<path opacity="0.1" d="M303.684 68.3669C303.624 68.3669 303.564 68.3693 303.505 68.3714C304.772 68.4175 305.972 68.9537 306.853 69.8672C307.733 70.7806 308.225 72.0002 308.225 73.2692C308.225 74.5382 307.733 75.7577 306.853 76.6711C305.972 77.5846 304.772 78.1208 303.505 78.1669C303.564 78.169 303.624 78.1714 303.684 78.1714C304.983 78.1714 306.23 77.6549 307.148 76.7356C308.067 75.8162 308.583 74.5693 308.583 73.2692C308.583 71.969 308.067 70.7221 307.148 69.8027C306.23 68.8834 304.983 68.3669 303.684 68.3669Z" fill="black"/>
<path opacity="0.1" d="M280.383 68.3669C280.443 68.3669 280.502 68.3693 280.562 68.3714C279.295 68.4175 278.094 68.9537 277.214 69.8672C276.334 70.7806 275.842 72.0002 275.842 73.2692C275.842 74.5382 276.334 75.7577 277.214 76.6711C278.094 77.5846 279.295 78.1208 280.562 78.1669C280.502 78.169 280.443 78.1714 280.383 78.1714C279.084 78.1703 277.839 77.6533 276.921 76.7341C276.003 75.8148 275.488 74.5686 275.488 73.2692C275.488 71.9697 276.003 70.7235 276.921 69.8043C277.839 68.885 279.084 68.368 280.383 68.3669Z" fill="black"/>
<path opacity="0.1" d="M296.507 81.6382C295.682 82.2602 294.678 82.5968 293.645 82.5973H287.912C286.88 82.5968 285.875 82.2602 285.051 81.6382H296.507Z" fill="black"/>
<path d="M333.527 117.161C333.527 117.161 334.762 120.722 335.892 119.774L334.991 115.119L333.527 117.161Z" fill="#FBBEBE"/>
<path d="M483.824 225.762C484.974 226.181 486.206 226.326 487.422 226.187C488.638 226.048 489.805 225.628 490.831 224.961C491.858 224.293 492.715 223.396 493.336 222.341C493.956 221.285 494.324 220.1 494.408 218.878C494.493 217.656 494.293 216.431 493.824 215.3C493.355 214.168 492.63 213.162 491.706 212.358C490.782 211.555 489.684 210.978 488.498 210.672C487.313 210.366 486.073 210.34 484.876 210.595L485.074 214.666L483.149 211.177C481.26 212.065 479.801 213.668 479.092 215.632C478.84 216.32 478.687 217.04 478.637 217.771C478.516 219.486 478.957 221.194 479.892 222.636C480.828 224.078 482.208 225.176 483.824 225.762Z" fill="#57B894"/>
<path d="M493.346 272.975C492.667 269.513 495.611 266.444 498.519 264.449C501.427 262.454 504.825 260.494 505.817 257.109C507.243 252.243 502.995 247.787 499.689 243.945C497.237 241.093 495.13 237.961 493.414 234.613C492.727 233.271 492.095 231.868 491.914 230.37C491.653 228.213 492.345 226.067 493.043 224.01C495.367 217.157 497.851 210.362 500.497 203.623" stroke="#3F3D56" stroke-miterlimit="10"/>
<path d="M484.149 224.714C485.299 225.133 486.531 225.278 487.747 225.139C488.963 225 490.131 224.58 491.157 223.913C492.183 223.245 493.04 222.348 493.661 221.293C494.282 220.237 494.649 219.052 494.734 217.83C494.819 216.608 494.619 215.383 494.15 214.252C493.681 213.12 492.956 212.113 492.031 211.31C491.107 210.507 490.009 209.93 488.824 209.624C487.639 209.318 486.399 209.292 485.202 209.547L485.399 213.618L483.475 210.129C481.586 211.017 480.127 212.62 479.418 214.584C479.166 215.272 479.013 215.992 478.963 216.723C478.842 218.438 479.282 220.146 480.218 221.588C481.154 223.03 482.534 224.128 484.149 224.714V224.714Z" stroke="#3F3D56" stroke-miterlimit="10"/>
<path d="M492.381 202.217C492.832 200.971 493.59 199.858 494.584 198.982C495.578 198.106 496.777 197.494 498.069 197.203L498.72 201.072L499.927 197.008C501.602 197.033 503.226 197.59 504.564 198.598C505.902 199.607 506.885 201.015 507.372 202.619C507.858 204.223 507.822 205.94 507.27 207.523C506.717 209.106 505.676 210.471 504.297 211.423C502.918 212.375 501.273 212.864 499.598 212.819C497.923 212.775 496.306 212.198 494.98 211.174C493.654 210.149 492.687 208.73 492.22 207.12C491.753 205.51 491.809 203.793 492.381 202.217H492.381Z" fill="#57B894"/>
<path d="M492.815 200.82C493.266 199.574 494.024 198.461 495.018 197.585C496.012 196.708 497.211 196.096 498.503 195.805L499.154 199.675L500.361 195.611C502.036 195.636 503.66 196.192 504.998 197.201C506.336 198.209 507.319 199.617 507.806 201.222C508.292 202.826 508.256 204.543 507.704 206.126C507.151 207.708 506.11 209.074 504.731 210.026C503.352 210.978 501.707 211.467 500.032 211.422C498.357 211.377 496.74 210.801 495.414 209.776C494.088 208.752 493.122 207.332 492.654 205.723C492.187 204.113 492.243 202.396 492.815 200.82H492.815Z" stroke="#3F3D56" stroke-miterlimit="10"/>
<path d="M498.302 244.023C500.127 244.685 502.131 244.653 503.933 243.931C505.734 243.21 507.208 241.851 508.072 240.112C508.937 238.373 509.132 236.377 508.62 234.504C508.108 232.631 506.925 231.012 505.297 229.955L504.37 233.078L503.712 229.163C503.706 229.16 503.699 229.157 503.692 229.155C502.717 228.801 501.68 228.642 500.643 228.687C499.606 228.733 498.588 228.983 497.647 229.423C496.707 229.863 495.862 230.484 495.161 231.251C494.461 232.017 493.918 232.914 493.564 233.891C493.21 234.868 493.051 235.904 493.098 236.942C493.144 237.98 493.395 238.999 493.835 239.94C494.275 240.88 494.896 241.725 495.662 242.426C496.429 243.127 497.326 243.67 498.302 244.023H498.302Z" fill="#57B894"/>
<path d="M498.678 242.608C500.503 243.27 502.507 243.237 504.309 242.516C506.11 241.795 507.584 240.435 508.448 238.697C509.313 236.958 509.508 234.962 508.996 233.089C508.484 231.216 507.301 229.596 505.673 228.54L504.746 231.663L504.088 227.748C504.082 227.745 504.075 227.742 504.068 227.74C503.093 227.385 502.056 227.226 501.019 227.272C499.982 227.318 498.964 227.568 498.023 228.008C497.083 228.448 496.238 229.069 495.537 229.835C494.837 230.602 494.294 231.499 493.94 232.476C493.586 233.452 493.427 234.489 493.474 235.527C493.52 236.565 493.771 237.583 494.211 238.524C494.651 239.465 495.272 240.31 496.038 241.011C496.805 241.711 497.702 242.254 498.678 242.608H498.678Z" stroke="#3F3D56" stroke-miterlimit="10"/>
<path d="M490.074 257.157C490.388 258.943 491.306 260.567 492.674 261.756C494.042 262.945 495.777 263.628 497.588 263.689C499.399 263.75 501.177 263.186 502.622 262.091C504.067 260.997 505.092 259.439 505.525 257.678C505.958 255.917 505.772 254.061 505 252.42C504.228 250.78 502.915 249.455 501.282 248.668C499.65 247.881 497.796 247.68 496.033 248.098C494.269 248.516 492.703 249.528 491.597 250.964L495.118 256.268L490.307 253.453C489.934 254.651 489.854 255.922 490.074 257.157Z" fill="#57B894"/>
<path d="M490.4 256.109C490.713 257.895 491.631 259.519 492.999 260.708C494.368 261.897 496.103 262.58 497.914 262.641C499.725 262.702 501.502 262.138 502.947 261.043C504.392 259.949 505.417 258.391 505.85 256.63C506.283 254.869 506.098 253.013 505.326 251.372C504.553 249.732 503.241 248.407 501.608 247.62C499.975 246.833 498.122 246.632 496.358 247.05C494.595 247.468 493.029 248.48 491.923 249.916L495.444 255.22L490.633 252.405C490.26 253.603 490.18 254.874 490.4 256.109V256.109Z" stroke="#3F3D56" stroke-miterlimit="10"/>
<path d="M104.888 245.028C105.644 245.303 106.453 245.399 107.252 245.307C108.051 245.216 108.818 244.94 109.492 244.501C110.167 244.063 110.73 243.474 111.138 242.78C111.546 242.087 111.787 241.308 111.843 240.505C111.898 239.702 111.767 238.897 111.459 238.154C111.151 237.411 110.674 236.749 110.067 236.222C109.46 235.694 108.738 235.315 107.96 235.114C107.181 234.913 106.366 234.895 105.58 235.063L105.71 237.738L104.445 235.446C103.204 236.029 102.245 237.082 101.779 238.372C101.614 238.824 101.513 239.297 101.481 239.778C101.401 240.905 101.69 242.027 102.305 242.974C102.92 243.922 103.827 244.643 104.888 245.028Z" fill="#57B894"/>
<path d="M111.145 276.048C110.698 273.773 112.633 271.757 114.543 270.446C116.454 269.135 118.686 267.848 119.338 265.623C120.275 262.427 117.484 259.499 115.312 256.975C113.701 255.101 112.317 253.043 111.19 250.843C110.699 249.979 110.366 249.036 110.203 248.056C110.032 246.639 110.487 245.229 110.945 243.877C112.472 239.374 114.105 234.91 115.843 230.483" stroke="#3F3D56" stroke-miterlimit="10"/>
<path d="M105.101 244.34C105.857 244.615 106.667 244.71 107.466 244.619C108.265 244.527 109.031 244.251 109.706 243.813C110.38 243.374 110.943 242.785 111.351 242.091C111.759 241.398 112 240.619 112.056 239.816C112.112 239.014 111.98 238.209 111.672 237.465C111.364 236.722 110.888 236.061 110.28 235.533C109.673 235.005 108.952 234.626 108.173 234.425C107.394 234.224 106.58 234.207 105.793 234.375L105.923 237.049L104.658 234.757C103.417 235.34 102.459 236.393 101.993 237.684C101.827 238.136 101.727 238.609 101.694 239.089C101.614 240.216 101.904 241.338 102.519 242.286C103.133 243.233 104.04 243.954 105.101 244.34V244.34Z" stroke="#3F3D56" stroke-miterlimit="10"/>
<path d="M110.51 229.559C110.807 228.74 111.305 228.009 111.958 227.433C112.611 226.857 113.398 226.455 114.248 226.264L114.675 228.806L115.468 226.136C116.568 226.152 117.635 226.518 118.515 227.181C119.394 227.844 120.04 228.769 120.359 229.823C120.679 230.877 120.655 232.005 120.292 233.045C119.929 234.084 119.245 234.982 118.339 235.607C117.433 236.233 116.352 236.554 115.252 236.524C114.152 236.495 113.089 236.116 112.218 235.443C111.347 234.77 110.712 233.837 110.405 232.78C110.098 231.722 110.135 230.594 110.51 229.559Z" fill="#57B894"/>
<path d="M110.795 228.641C111.092 227.822 111.59 227.091 112.243 226.515C112.896 225.939 113.684 225.537 114.533 225.346L114.96 227.888L115.753 225.218C116.854 225.234 117.921 225.6 118.8 226.263C119.679 226.926 120.325 227.851 120.645 228.905C120.964 229.958 120.941 231.087 120.578 232.127C120.214 233.166 119.531 234.064 118.625 234.689C117.719 235.315 116.637 235.636 115.537 235.606C114.437 235.577 113.374 235.198 112.503 234.525C111.632 233.852 110.997 232.919 110.69 231.862C110.383 230.804 110.42 229.676 110.795 228.641V228.641Z" stroke="#3F3D56" stroke-miterlimit="10"/>
<path d="M114.401 257.026C115.599 257.461 116.916 257.44 118.1 256.966C119.284 256.492 120.252 255.598 120.82 254.456C121.388 253.314 121.516 252.002 121.179 250.772C120.843 249.541 120.066 248.477 118.996 247.783L118.387 249.835L117.955 247.263C117.951 247.26 117.947 247.259 117.942 247.257C117.301 247.024 116.62 246.92 115.939 246.95C115.257 246.98 114.588 247.144 113.97 247.433C113.352 247.722 112.797 248.13 112.336 248.634C111.876 249.137 111.519 249.727 111.286 250.369C111.054 251.01 110.95 251.692 110.98 252.374C111.011 253.055 111.176 253.725 111.465 254.343C111.754 254.961 112.162 255.516 112.666 255.977C113.17 256.437 113.759 256.794 114.401 257.026Z" fill="#57B894"/>
<path d="M114.648 256.096C115.846 256.531 117.163 256.51 118.347 256.036C119.531 255.562 120.499 254.668 121.067 253.526C121.635 252.384 121.763 251.072 121.427 249.842C121.09 248.611 120.313 247.547 119.243 246.853L118.634 248.905L118.202 246.333C118.198 246.331 118.194 246.329 118.189 246.328C117.548 246.095 116.868 245.991 116.186 246.021C115.505 246.052 114.837 246.216 114.219 246.505C112.972 247.089 112.007 248.145 111.537 249.44C111.068 250.735 111.132 252.164 111.715 253.413C112.298 254.661 113.353 255.626 114.648 256.096V256.096Z" stroke="#3F3D56" stroke-miterlimit="10"/>
<path d="M108.995 265.655C109.201 266.829 109.804 267.896 110.703 268.677C111.602 269.458 112.742 269.906 113.932 269.947C115.122 269.987 116.289 269.616 117.239 268.897C118.188 268.178 118.862 267.154 119.146 265.997C119.431 264.84 119.309 263.621 118.801 262.543C118.294 261.465 117.432 260.595 116.359 260.078C115.286 259.561 114.068 259.428 112.91 259.703C111.751 259.978 110.722 260.643 109.995 261.586L112.309 265.071L109.148 263.221C108.903 264.009 108.85 264.843 108.995 265.655Z" fill="#57B894"/>
<path d="M109.209 264.967C109.415 266.14 110.018 267.207 110.917 267.988C111.816 268.77 112.956 269.218 114.146 269.258C115.336 269.298 116.503 268.928 117.453 268.209C118.402 267.489 119.075 266.466 119.36 265.309C119.644 264.152 119.523 262.932 119.015 261.854C118.508 260.777 117.645 259.906 116.573 259.389C115.5 258.872 114.282 258.74 113.124 259.014C111.965 259.289 110.936 259.954 110.209 260.898L112.523 264.382L109.362 262.533C109.117 263.32 109.064 264.155 109.209 264.967V264.967Z" stroke="#3F3D56" stroke-miterlimit="10"/>
<path d="M284.107 195.957C287.672 195.957 290.562 192.215 290.562 187.598C290.562 182.981 287.672 179.238 284.107 179.238C280.541 179.238 277.651 182.981 277.651 187.598C277.651 192.215 280.541 195.957 284.107 195.957Z" fill="#2F2E41"/>
<path d="M319.233 196.147C322.799 196.147 325.689 192.405 325.689 187.788C325.689 183.171 322.799 179.428 319.233 179.428C315.668 179.428 312.777 183.171 312.777 187.788C312.777 192.405 315.668 196.147 319.233 196.147Z" fill="#2F2E41"/>
<path d="M314.296 212.488C314.296 216.265 309.026 219.328 302.524 219.328C296.023 219.328 290.752 216.265 290.752 212.488C290.752 209.216 294.705 206.48 299.987 205.811C300.828 205.7 301.676 205.646 302.524 205.648C303.946 205.643 305.363 205.796 306.751 206.104C311.163 207.088 314.296 209.577 314.296 212.488Z" fill="#2F2E41"/>
<path d="M285.626 194.057C289.191 194.057 292.081 190.315 292.081 185.698C292.081 181.081 289.191 177.338 285.626 177.338C282.06 177.338 279.17 181.081 279.17 185.698C279.17 190.315 282.06 194.057 285.626 194.057Z" stroke="#3F3D56" stroke-miterlimit="10"/>
<path d="M320.752 194.247C324.318 194.247 327.208 190.505 327.208 185.888C327.208 181.271 324.318 177.528 320.752 177.528C317.187 177.528 314.296 181.271 314.296 185.888C314.296 190.505 317.187 194.247 320.752 194.247Z" stroke="#3F3D56" stroke-miterlimit="10"/>
<path d="M304.043 217.428C310.545 217.428 315.815 214.365 315.815 210.588C315.815 206.81 310.545 203.748 304.043 203.748C297.542 203.748 292.271 206.81 292.271 210.588C292.271 214.365 297.542 217.428 304.043 217.428Z" stroke="#3F3D56" stroke-miterlimit="10"/>
<path d="M306.891 206.674C306.894 207.152 306.715 207.613 306.39 207.963C306.236 208.131 306.05 208.265 305.842 208.357C305.634 208.449 305.41 208.497 305.182 208.498H301.385C300.917 208.482 300.475 208.281 300.154 207.939C299.834 207.597 299.662 207.142 299.676 206.674C299.674 206.304 299.783 205.941 299.987 205.632C300.828 205.514 301.676 205.456 302.524 205.458C303.947 205.453 305.366 205.617 306.751 205.944C306.845 206.176 306.892 206.424 306.891 206.674Z" fill="white"/>
<path d="M285.625 185.318C286.674 185.318 287.524 184.467 287.524 183.418C287.524 182.369 286.674 181.518 285.625 181.518C284.577 181.518 283.727 182.369 283.727 183.418C283.727 184.467 284.577 185.318 285.625 185.318Z" fill="white"/>
<path d="M320.942 185.318C321.991 185.318 322.841 184.467 322.841 183.418C322.841 182.369 321.991 181.518 320.942 181.518C319.894 181.518 319.043 182.369 319.043 183.418C319.043 184.467 319.894 185.318 320.942 185.318Z" fill="white"/>
<path opacity="0.3" d="M322.841 203.178C323.89 203.178 324.74 202.327 324.74 201.278C324.74 200.229 323.89 199.378 322.841 199.378C321.792 199.378 320.942 200.229 320.942 201.278C320.942 202.327 321.792 203.178 322.841 203.178Z" fill="#008DC8"/>
<path opacity="0.3" d="M276.512 203.178C277.56 203.178 278.41 202.327 278.41 201.278C278.41 200.229 277.56 199.378 276.512 199.378C275.463 199.378 274.613 200.229 274.613 201.278C274.613 202.327 275.463 203.178 276.512 203.178Z" fill="#008DC8"/>
</g>
<path d="M17.7412 110.099L12.0982 88.3006L33.7971 94.3126L17.7412 110.099Z" stroke="#008DC8" stroke-width="2"/>
<path d="M398.793 36.9616L416.506 32.8387L411.22 50.2401L398.793 36.9616Z" stroke="#008DC8" stroke-width="2"/>
<path d="M582.782 182.162L593.049 172.856L595.974 186.401L582.782 182.162Z" stroke="#008DC8" stroke-width="2"/>
<path d="M470.853 336.234L471.857 313.739L490.835 325.855L470.853 336.234Z" stroke="#008DC8" stroke-width="2"/>
<path d="M189.751 357.738L181.942 367.013L177.814 355.612L189.751 357.738Z" stroke="#008DC8" stroke-width="2"/>
<circle cx="62.9673" cy="310.843" r="11" stroke="#008DC8" stroke-width="3"/>
<circle cx="261.967" cy="27.8326" r="11" stroke="#008DC8" stroke-width="3"/>
<circle cx="128.467" cy="31.3326" r="4.5" stroke="#008DC8" stroke-width="3"/>
<circle cx="351.467" cy="355.344" r="8.5" stroke="#008DC8" stroke-width="3"/>
<circle cx="550.467" cy="74.3341" r="13.5" stroke="#008DC8" stroke-width="3"/>
<defs>
<clipPath id="clip0">
<rect width="408" height="222.008" fill="white" transform="translate(101.467 66.3342)"/>
</clipPath>
</defs>
</svg>
