<svg xmlns="http://www.w3.org/2000/svg" xmlns:xlink="http://www.w3.org/1999/xlink" version="1.1" id="Layer_1" x="0px" y="0px" viewBox="0 0 1080 1080" enable-background="new 0 0 1080 1080" xml:space="preserve">
<path xmlns="http://www.w3.org/2000/svg" opacity="0.3" fill="#CCE9FF" d="M879.073,701.882c0,0-23.999-38.255,23.999-117.272  c47.998-79.018,48.895-333.723-176.542-261.867S391.4,436.521,246.105,349.126c-283.486-170.517-83.996,352.756-83.996,352.756  H879.073"/>
<g xmlns="http://www.w3.org/2000/svg">
	<polygon opacity="0.5" fill="#CCE9FF" points="341.849,263.519 398.06,395.408 439.144,367.303 462.952,401.898 467.249,343.539    516.97,313.241  "/>
	<polygon opacity="0.1" fill="#0B4870" points="448.251,361.06 398.06,395.408 439.144,367.303 462.952,401.898 467.249,343.539    388.02,296.354  "/>
	<polygon opacity="0.1" fill="#0B4870" points="466.196,357.843 388.02,296.354 467.249,343.539  "/>
</g>
<g xmlns="http://www.w3.org/2000/svg">
	<g>
		<path fill="#CCE9FF" d="M463.959,418.347c-0.442-2.57-1.005-5.132-1.67-7.62l3.854-1.033c0.698,2.605,1.284,5.288,1.748,7.975    L463.959,418.347z"/>
		<path fill="#CCE9FF" d="M417.415,507.932c-5.793-0.388-11.334-2.235-16.026-5.347l2.206-3.324    c4.113,2.726,8.984,4.347,14.085,4.688L417.415,507.932z M433.99,504.678l-1.761-3.581c4.15-2.04,8.166-5.202,11.936-9.399    l2.969,2.665C443.021,498.942,438.598,502.414,433.99,504.678z M390.285,489.843c-2.253-4.56-3.441-9.573-3.439-14.496    c0-0.403,0.008-0.809,0.025-1.212l0.047-0.865l3.979,0.292l-0.039,0.727c-0.014,0.358-0.022,0.709-0.022,1.058    c-0.002,4.316,1.044,8.717,3.026,12.731L390.285,489.843z M544.665,488.933l-0.019-3.99c5.198-0.025,10.547-0.238,15.895-0.631    l0.292,3.979C555.395,488.691,549.955,488.907,544.665,488.933z M528.481,488.409l-2.549-0.197    c-4.904-0.407-9.349-0.961-13.586-1.693l0.678-3.932c4.123,0.713,8.452,1.251,13.24,1.65l2.494,0.189L528.481,488.409z     M576.91,486.595l-0.538-3.955c5.132-0.698,10.422-1.572,15.722-2.593l0.756,3.916    C587.478,484.999,582.116,485.885,576.91,486.595z M496.49,482.562c-4.69-1.596-9.086-3.544-13.068-5.793    c-0.626-0.351-1.249-0.717-1.867-1.089l2.061-3.417c0.582,0.353,1.167,0.695,1.761,1.029c3.772,2.13,7.942,3.977,12.398,5.495    L496.49,482.562z M456.67,480.971l-3.46-1.987c2.586-4.497,4.799-9.284,6.582-14.228l3.753,1.352    C461.683,471.272,459.371,476.272,456.67,480.971z M608.62,480.529l-0.939-3.877c4.99-1.21,10.184-2.585,15.433-4.088l1.099,3.838    C618.91,477.918,613.665,479.306,608.62,480.529z M639.626,471.693l-1.231-3.795c5.072-1.643,10.12-3.365,15.139-5.148l1.333,3.76    C649.816,468.305,644.733,470.039,639.626,471.693z M468.234,466.436c-3.671-2.675-7.613-5.481-11.88-7.817l-1.335-0.707    l1.828-3.546c0.475,0.243,0.951,0.497,1.421,0.754c4.477,2.449,8.706,5.46,12.316,8.09L468.234,466.436z M396.489,460.435    l-2.79-2.853c3.513-3.439,8.316-6.017,14.685-7.879l1.341,3.764C403.86,455.184,399.482,457.505,396.489,460.435z     M440.445,452.645c-4.536-1.015-9.189-1.531-13.83-1.531l-1.617,0.021l-0.098-3.99c5.492-0.134,11.036,0.399,16.417,1.607    L440.445,452.645z M467.759,450.294l-3.928-0.698c0.914-5.157,1.389-10.414,1.417-15.624l3.99,0.02    C469.21,439.427,468.713,444.912,467.759,450.294z"/>
		<path fill="#CCE9FF" d="M670.142,460.883l-1.418-3.729c2.482-0.947,4.965-1.908,7.439-2.874l1.45,3.718    C675.13,458.968,672.64,459.932,670.142,460.883z"/>
	</g>
</g>
<path xmlns="http://www.w3.org/2000/svg" fill="#CCE9FF" d="M836.056,538.411c-2.03,0-3.768-1.543-3.967-3.607c-0.214-2.192,1.391-4.142,3.585-4.355  c24.114-2.336,46.298-13.848,62.467-32.414c1.45-1.666,3.971-1.832,5.627-0.388c1.664,1.446,1.839,3.967,0.39,5.629  c-17.512,20.112-41.56,32.584-67.712,35.115C836.313,538.406,836.185,538.411,836.056,538.411z"/>
<path xmlns="http://www.w3.org/2000/svg" fill="#00AEF0" d="M747.127,555.329l-139.01,81.976l-139.01-81.976c0-0.068,0-0.158,0.023-0.226  c0.113-0.521,7.786-6.926,19.487-16.431c0.113-0.09,0.203-0.181,0.317-0.272c38.385-31.165,119.183-94.989,119.183-94.989  s80.799,63.824,119.184,94.989c11.882,9.642,19.69,16.16,19.804,16.703C747.127,555.17,747.127,555.261,747.127,555.329z"/>
<path xmlns="http://www.w3.org/2000/svg" opacity="0.4" fill="#0B4870" d="M747.127,555.329l-139.01,81.976l-139.01-81.976c0-0.068,0-0.158,0.023-0.226  c0.113-0.521,7.786-6.926,19.487-16.431c0.113-0.09,0.203-0.181,0.317-0.272c38.385-31.165,119.183-94.989,119.183-94.989  s80.799,63.824,119.184,94.989c11.882,9.642,19.69,16.16,19.804,16.703C747.127,555.17,747.127,555.261,747.127,555.329z"/>
<path xmlns="http://www.w3.org/2000/svg" fill="#CCE9FF" d="M665.286,375.521H515.303c-12.864,0-23.293,10.429-23.293,23.293v226.772  c0,12.865,10.429,23.293,23.293,23.293h187.934c12.865,0,23.293-10.429,23.293-23.293V436.766L665.286,375.521z"/>
<path xmlns="http://www.w3.org/2000/svg" fill="#CCE9FF" d="M665.286,413.472c0,12.865,10.429,23.293,23.293,23.293h37.951l-61.244-61.244V413.472z"/>
<path xmlns="http://www.w3.org/2000/svg" fill="#00AEF0" d="M587.528,413.853h-51.744c-4.583,0-8.298,3.715-8.298,8.298v51.744c0,4.583,3.715,8.298,8.298,8.298h51.744  c4.583,0,8.298-3.715,8.298-8.298v-51.744C595.826,417.568,592.111,413.853,587.528,413.853z"/>
<path xmlns="http://www.w3.org/2000/svg" fill="#00AEF0" d="M658.412,501.184H534.253c-3.692,0-6.685,2.993-6.685,6.685l0,0c0,3.692,2.993,6.686,6.685,6.686h124.159  c3.692,0,6.685-2.993,6.685-6.686l0,0C665.098,504.177,662.105,501.184,658.412,501.184z"/>
<path xmlns="http://www.w3.org/2000/svg" fill="#00AEF0" d="M658.412,534.488H534.253c-3.692,0-6.685,2.993-6.685,6.685l0,0c0,3.693,2.993,6.686,6.685,6.686h124.159  c3.692,0,6.685-2.993,6.685-6.686l0,0C665.098,537.481,662.105,534.488,658.412,534.488z"/>
<path xmlns="http://www.w3.org/2000/svg" fill="#00AEF0" d="M602.025,566.796h-67.772c-3.692,0-6.685,2.993-6.685,6.685l0,0c0,3.692,2.993,6.686,6.685,6.686h67.772  c3.692,0,6.686-2.993,6.686-6.686l0,0C608.711,569.789,605.717,566.796,602.025,566.796z"/>
<g xmlns="http://www.w3.org/2000/svg">
	<path fill="#00AEF0" d="M747.141,555.323v133.363c0,9.321-7.619,16.939-16.939,16.939H486.017c-9.321,0-16.894-7.618-16.894-16.939   V555.323l139.009,81.963L747.141,555.323z"/>
	<path opacity="0.2" fill="#0B4870" d="M742.443,700.317l-89.471-89.471l-44.84,26.438l-44.859-26.45l-89.477,89.477   c3.08,3.253,7.403,5.312,12.221,5.312h244.185C735.018,705.625,739.352,703.568,742.443,700.317z"/>
</g>
<g xmlns="http://www.w3.org/2000/svg">
	<g>
		<path opacity="0.5" fill="#008dc8" d="M819.862,341.927c-40.017,3.928-71.987,36.91-74.848,77.018    c-1.424,19.961,4.233,38.5,14.649,53.499c3.924,5.651,4.568,12.952,1.929,19.305l-6.599,15.888l26.975-6.993    c4.396-1.14,9.04-0.784,13.206,1.023c12.506,5.424,26.586,7.896,41.387,6.463c39.277-3.802,71.058-35.522,74.851-74.799    C916.503,380.635,872.573,336.754,819.862,341.927z"/>
		<g>
			<path fill="#008dc8" d="M830.374,467.222l4.59-4.59c0,0-3.645-8.592,11.638-23.079c9.096-8.623,11.132-16.973,10.392-23.799     c-1.177-10.866-10.051-19.741-20.918-20.918c-6.827-0.739-15.176,1.296-23.799,10.392c-14.488,15.284-23.08,11.638-23.08,11.638     l-4.59,4.59L830.374,467.222z"/>
			<path fill="#008dc8" d="M794.962,439.19c-3.631,4.955-3.222,11.944,1.256,16.422c4.478,4.478,11.468,4.887,16.422,1.256     L794.962,439.19z"/>
			<path fill="#008dc8" d="M860.201,400.407l-2.858,2.858c-2.225-3.537-5.247-6.559-8.809-8.762l2.881-2.882     c2.437-2.437,6.372-2.436,8.809,0C862.637,394.034,862.637,397.97,860.201,400.407z"/>
		</g>
	</g>
</g>
<path xmlns="http://www.w3.org/2000/svg" fill="#CCE9FF" d="M346.614,302.629l18.233,41.839c0.927,2.133-0.054,4.613-2.189,5.535l-0.65,0.281  c-2.145,0.926-4.633-0.074-5.541-2.227l-17.582-42.12c-0.93-2.208,0.17-4.746,2.417-5.576l0,0  C343.394,299.588,345.725,300.583,346.614,302.629z"/>
<path xmlns="http://www.w3.org/2000/svg" fill="#CCE9FF" d="M977.862,728.3c0,14.591-11.828,26.418-26.418,26.418H143.194c-14.59,0-26.418-11.828-26.418-26.418l0,0  c0-14.59,11.828-26.418,26.418-26.418h808.249C966.034,701.882,977.862,713.71,977.862,728.3L977.862,728.3z"/>
<g xmlns="http://www.w3.org/2000/svg">
	<path fill="#0B4870" d="M430.969,667.087c-0.973-0.855-2.034-1.739-3.213-2.683c-11.881-9.522-83.311-49.232-103.446-58.489   c-1.377-0.632-3.165-0.521-5.045,0.164c-1.574,0.291-3.267,1.06-5.097,2.486c-15.823,12.327-103.722,70.778-101.954,73.999   c4.594,8.371,53.786-11.305,83.945-28.006c9.233-5.113,16.559-8.996,24.585-13.277c4.936,3.586,15.282,12.297,27.091,21.795   c17.659,14.209,38.383,30.099,48.495,32.9c13.119,3.626,22.67,3.449,29.775-1.474C440.314,684.628,445.385,679.646,430.969,667.087   z"/>
	<path fill="#0B4870" d="M426.105,694.504c-7.105,4.923-16.656,5.1-29.775,1.474c-10.112-2.801-30.836-18.691-48.495-32.9   c31.19,0.295,67.215,3.832,80.216,3.98c0.973,0.029,1.946,0.029,2.919,0.029C445.385,679.646,440.314,684.628,426.105,694.504z"/>
	<path fill="#CCE9FF" d="M395.137,609.738c-3.782-3.155-12.943-12.278-17.678-17.038c-2.744-2.759-3.338-7.202-0.962-10.284   c0.222-0.288,0.468-0.568,0.741-0.836c1.997-1.965,3.265,0.068,5.342,1.452c9.634,6.419,29.216,15.229,38.822,17.962   c10.074,2.866,13.425,10.029,6.244,20.359C423.587,627.191,406.113,618.896,395.137,609.738z"/>
	<path fill="#CCE9FF" d="M483.355,606.201c0,0.147-0.029,0.295-0.029,0.442c-0.472,6.633-1.091,13.148-1.739,19.339   c-2.388,22.936-5.366,41.066-5.366,41.066h-59.196c-11.35,0-20.017-10.082-18.278-21.285c1.592-10.348,3.331-23.791,4.481-38.767   c0.118-1.622,0.236-3.243,0.354-4.894c0.737-10.819,1.091-22.287,0.825-33.902v-0.118c-0.148-6.78-0.501-13.62-1.12-20.4   c0.324-4.186-6.574-22.906,16.745-23.849l33.784-1.415c12.087-0.531,21.668,7.989,26.208,18.808   c0.442,1.032,0.826,2.152,1.209,3.361C485.419,558.384,485.124,582.793,483.355,606.201z"/>
	<path opacity="0.1" fill="#0B4870" d="M483.355,606.201c0,0.147-0.029,0.295-0.029,0.442l-10.171-4.599l-5.247-61.584l13.325,4.127   C485.419,558.384,485.124,582.793,483.355,606.201z"/>
	<path opacity="0.1" fill="#0B4870" d="M483.365,606.194c-0.482,6.776-1.114,13.462-1.777,19.787c-2.59-1.205-5.09-2.53-7.348-3.945   c-2.59-1.596-7.469-5.12-12.077-8.523l-9.999-7.439c0.331,1.024,0.151,1.837-0.452,2.259v0.03   c-0.362,0.271-0.874,0.362-1.446,0.331l-44.543-4.729c-1.054-0.181-1.747-0.873-2.138-1.867   c0.723-10.812,1.084-22.287,0.813-33.912v-0.09l40.357,18.763c0.422,0.09,0.843,0.181,1.265,0.301   c3.524,0.964,6.144,5.09,8.282,8.493c1.114,0.03,2.259,1.024,3.735,1.717C464.302,600.381,474.27,603.724,483.365,606.194z"/>
	<path fill="#008dc8" d="M370.615,563.409c0.032,0.291,0.103,0.59,0.212,0.898l13.908,33.619c0.659,1.565,2.479,2.852,4.056,2.879   l58.753,1.734c0.578-0.015,1.081-0.153,1.433-0.43l0.001-0.035c0.549-0.483,0.682-1.305,0.279-2.281l-13.907-33.655   c-0.622-1.521-2.442-2.808-4.018-2.835l-58.753-1.734C371.308,561.538,370.561,562.296,370.615,563.409z"/>
	<path fill="#0B4870" d="M218.543,678.58c1.014,0.451,2.314,3.01,2.231,4.117c-0.276,3.682-3.185,6.407-4.888,8.068   c-1.812,1.768-19.96-4.322-29.109-9.558c-4.942-2.828,12.362-0.634,16.469-0.735c3.137-0.078,9.068-0.934,10.885-1.692   c1.914-0.798,2.805-0.915,3.663-0.534L218.543,678.58z"/>
	<path fill="#CCE9FF" d="M468.944,701.23c0,8.952-65.497,16.209-146.291,16.209c-80.795,0-146.291-7.257-146.291-16.209   c0-8.952,65.497-16.208,146.291-16.208C403.447,685.021,468.944,692.278,468.944,701.23z"/>
	<path fill="#0B4870" d="M224.424,702.193c0.726,0.84,0.813,3.709,0.267,4.675c-1.817,3.215-5.609,4.442-7.857,5.221   c-2.392,0.828-16.223-12.405-22.274-21.038c-3.268-4.662,11.456,4.687,15.216,6.344c2.872,1.265,8.604,3.014,10.57,3.101   c2.071,0.092,2.928,0.365,3.542,1.076L224.424,702.193z"/>
	<path fill="#0B4870" d="M473.972,678.311c0.019-0.069,0.04-0.139,0.058-0.208c1.197-4.191,2.08-9.208,2.651-15.262   c-28.641,0.725-71.986-2.945-78.01-16.631c-2.449,4.736-4.558,11.839-5.073,19.079c-24.47,1.061-55.429,3.195-75.662,6.444   c-19.779,3.335-101.027,27.381-99.769,30.834c3.184,8.737,22.213,5.542,56.713,3.441c14.007-0.852,45.503-5.357,60.607-9.561   c19.935,0.098,101.657,7.66,110.121,5.985c20.629-4.082,22.785-7.29,27.786-22.227c0.057-0.169,0.096-0.321,0.149-0.487   C473.69,679.261,473.833,678.791,473.972,678.311z"/>
	<path fill="#FFE3CA" d="M441.591,578.345c5.265,1.058,9.126,9.214,11.943,11.606c3.409,2.895-0.29,5.555-5.08,6.4   c-4.29,0.757-10.113,0.174-12.724-1.892c-2.208-1.747-4.972-3.799-7.397-10.647C426.352,578.223,434.718,576.964,441.591,578.345z"/>
	<path fill="#FFE3CA" d="M379.213,574.758c5.265,1.058,9.127,9.214,11.943,11.606c3.409,2.895-0.29,5.555-5.079,6.4   c-4.29,0.757-3.336,3.215-5.947,1.149c-2.208-1.747-4.972-3.799-7.398-10.646C370.752,577.677,372.34,573.377,379.213,574.758z"/>
	<path fill="#CCE9FF" d="M508.267,606.966c-0.012-0.274-0.019-0.551-0.048-0.814c-0.495-6.778-3.545-15.42-5.919-22.387   c-3.681-10.804-9.223-28.359-20.296-48.894c-5.278-9.787-12.882-12.972-25.724-12.431c-5.049,0.213,7.389,23.232,10.124,29.565   c2.926,6.776,13.296,18.402,20.93,37.328c0.673,1.669,5.251,11.275,6,13.206c-10.069-1.829-31.767-11.987-39.057-14.86   c-2.322-0.915-3.724-2.436-5.528-0.293c-3.758,4.464-1.247,9.107-1.247,9.107s18.672,11.496,24.679,14.646   c12.66,6.638,31.49,11.064,34.226,4.501c0.308-0.739,0.576-1.455,0.807-2.151C508.09,611.749,508.375,609.505,508.267,606.966z"/>
	<path fill="#FFE3CA" d="M425.564,523.588c1.202,5.014,5.54,8.297,11.588,8.043c6.048-0.255,14.638-4.083,18.551-9.312   L425.564,523.588z"/>
	<path fill="#008dc8" d="M411.947,461.542c-11.313,9.665-2.284,42.246,2.597,41.748l10.379-7.283   C432.892,494.749,430.529,445.668,411.947,461.542z"/>
	<path fill="#FFE3CA" d="M429.75,525.375c2.354-11.588-3.226-25.432-5.404-35.898c-1.352-6.492,2.429-13.056,9.175-14.501   c7.355-1.575,14.774,3.079,16.287,10.038c0.752,3.461,3.925,16.291-1.308,40.361"/>
	<path fill="#FFE3CA" d="M409.66,487.218c0.574,18.863,17.09,34.2,25.694,34.2c7.813,0,26.852-15.403,26.278-34.266   c-0.574-18.863-13.27-34.104-28.357-34.043C418.188,453.171,409.085,468.355,409.66,487.218z"/>
	<path fill="#008dc8" d="M460.803,485.761c6.65,3.88,9.031-38.824-7.351-31.516C440,460.247,452.834,487.02,460.803,485.761"/>
	<path fill="#0B4870" d="M461.517,483.92"/>
	<path fill="#008dc8" d="M442.849,472.805c-22.696,15.661-34.895,1.921-42.329-6.592c0,0,3.511-0.074,7.088-2.643   c0,0-3.553-2.046-7.69-4.371c0,0,4.181-0.96,8.472-3.309c0,0,2.027,0.1-3.228-2.696c0,0,10.825-5.514,25.13-8.941   c9.717-2.328,34.17-3.361,30.074,11.534c-0.327,1.19-0.77,2.318-1.289,3.378C455.957,465.537,450.945,467.219,442.849,472.805z"/>
	<path fill="#FFE3CA" d="M456.427,484.242c-1.436,5.695-0.105,10.968,2.974,11.778c3.078,0.81,6.738-3.15,8.174-8.844   c1.436-5.695,0.105-10.967-2.973-11.778C461.523,474.588,457.863,478.547,456.427,484.242z"/>
</g>
<path xmlns="http://www.w3.org/2000/svg" fill="#FCD2B1" d="M450.708,512.346c0,0-3.977,7.552-9.155,9.072c-5.178,1.52-7.496,2.415-11.243-1.314  C430.31,520.104,443.922,521.468,450.708,512.346z"/>
<circle xmlns="http://www.w3.org/2000/svg" fill="#008dc8" cx="692.626" cy="411.033" r="43.684"/>
<g xmlns="http://www.w3.org/2000/svg">
	<polygon fill="#CCE9FF" points="687.506,437.395 663.906,417.899 669.639,410.961 686.057,424.524 714.914,387.048 722.045,392.54     "/>
</g>
<path xmlns="http://www.w3.org/2000/svg" fill="#CCE9FF" d="M322.653,797.703c0,2.278-3.693,4.125-8.25,4.125H211.586c-4.556,0-8.25-1.847-8.25-4.125l0,0  c0-2.278,3.693-4.125,8.25-4.125h102.817C318.959,793.578,322.653,795.424,322.653,797.703L322.653,797.703z"/>
<path xmlns="http://www.w3.org/2000/svg" fill="#CCE9FF" d="M458.182,861.202c0,2.278-3.693,4.125-8.25,4.125H347.116c-4.556,0-8.25-1.847-8.25-4.125l0,0  c0-2.278,3.693-4.125,8.25-4.125h102.817C454.489,857.077,458.182,858.924,458.182,861.202L458.182,861.202z"/>
<path xmlns="http://www.w3.org/2000/svg" fill="#CCE9FF" d="M788.767,873c0,3.082-3.693,5.58-8.25,5.58H677.701c-4.556,0-8.25-2.498-8.25-5.58l0,0  c0-3.082,3.693-5.58,8.25-5.58h102.817C785.074,867.42,788.767,869.918,788.767,873L788.767,873z"/>
<path xmlns="http://www.w3.org/2000/svg" fill="#CCE9FF" d="M928.263,801.827c0,3.082-3.693,5.58-8.25,5.58H817.197c-4.556,0-8.25-2.498-8.25-5.58l0,0  c0-3.082,3.693-5.58,8.25-5.58h102.817C924.57,796.247,928.263,798.745,928.263,801.827L928.263,801.827z"/>
<path xmlns="http://www.w3.org/2000/svg" fill="#CCE9FF" d="M677.612,800.493c0,3.819-7.298,6.915-16.3,6.915H458.166c-9.002,0-16.3-3.096-16.3-6.915l0,0  c0-3.819,7.298-6.915,16.3-6.915h203.146C670.314,793.578,677.612,796.674,677.612,800.493L677.612,800.493z"/>
</svg>